<?xml version="1.0" standalone="no"?>
<!DOCTYPE svg PUBLIC "-//W3C//DTD SVG 20010904//EN"
 "http://www.w3.org/TR/2001/REC-SVG-20010904/DTD/svg10.dtd">
<svg version="1.0" xmlns="http://www.w3.org/2000/svg"
 width="1200.000000pt" height="1200.000000pt" viewBox="0 0 1200.000000 1200.000000"
 preserveAspectRatio="xMidYMid meet">
<metadata>
Created by potrace 1.11, written by Peter Selinger 2001-2013
</metadata>
<g transform="translate(0.000000,1200.000000) scale(0.100000,-0.100000)"
fill="#000000" stroke="none">
<path d="M7250 10889 c-222 -13 -427 -73 -562 -164 -202 -136 -334 -375 -398
-720 -47 -256 -45 -104 -45 -4050 0 -3553 1 -3725 18 -3830 93 -561 385 -853
930 -927 71 -10 463 -13 1717 -13 1486 0 1631 1 1697 17 142 33 246 105 293
204 34 68 47 179 32 265 -28 161 -117 254 -297 307 -40 12 -158 16 -595 22
-586 8 -660 14 -845 66 -397 113 -586 356 -662 854 -16 107 -17 349 -23 3480
-7 3666 -2 3407 -60 3674 -41 189 -122 376 -212 493 -141 183 -411 303 -716
319 -59 3 -118 6 -132 8 -14 1 -77 -1 -140 -5z"/>
<path d="M2065 10833 c-323 -41 -571 -172 -749 -395 -161 -201 -236 -429 -257
-778 -15 -261 -6 -7282 10 -7410 88 -710 307 -1008 811 -1106 114 -22 383 -30
507 -15 590 73 836 371 924 1126 8 69 14 540 18 1535 6 1306 8 1440 24 1492
32 109 80 163 189 213 120 55 148 57 873 64 631 7 674 9 736 28 180 54 268
159 277 330 10 191 -81 309 -283 365 -78 21 -98 22 -785 28 -829 7 -817 6
-905 94 -60 60 -88 123 -111 256 -13 77 -14 242 -11 1247 3 1234 2 1200 52
1392 105 408 325 601 775 683 104 19 167 22 670 28 477 6 563 9 614 24 138 39
225 106 273 210 26 56 28 70 28 181 0 109 -2 125 -26 176 -51 108 -122 166
-254 211 l-70 23 -1650 1 c-907 1 -1663 -1 -1680 -3z"/>
</g>
</svg>
