<?xml version="1.0" standalone="no"?>
<!DOCTYPE svg PUBLIC "-//W3C//DTD SVG 20010904//EN"
 "http://www.w3.org/TR/2001/REC-SVG-20010904/DTD/svg10.dtd">
<svg version="1.0" xmlns="http://www.w3.org/2000/svg"
 width="1200.000000pt" height="1200.000000pt" viewBox="0 0 1200.000000 1200.000000"
 preserveAspectRatio="xMidYMid meet">
<metadata>
Created by potrace 1.11, written by Peter Selinger 2001-2013
</metadata>
<g transform="translate(0.000000,1200.000000) scale(0.100000,-0.100000)"
fill="#000000" stroke="none">
<path d="M7120 11503 c-173 -18 -379 -62 -512 -109 -83 -30 -238 -106 -330
-162 -68 -41 -133 -64 -164 -58 -29 6 -74 28 -123 60 -84 54 -246 126 -331
147 -283 70 -330 71 -2060 66 -1643 -4 -1596 -2 -1869 -63 -230 -51 -399 -121
-572 -236 -107 -71 -299 -257 -370 -358 -198 -282 -297 -603 -329 -1065 -8
-113 -10 -1222 -8 -3800 3 -3393 5 -3650 21 -3783 34 -276 96 -554 163 -722
103 -260 271 -481 469 -616 160 -109 289 -166 489 -215 484 -118 1113 -76
1482 100 282 135 467 319 609 606 113 229 177 472 222 850 14 121 17 311 22
1390 6 1172 7 1252 24 1290 24 54 44 74 97 99 43 19 69 21 505 27 253 4 478
10 500 14 22 3 72 11 110 17 39 5 115 21 170 35 55 13 111 27 124 29 14 3 28
7 33 10 5 3 22 3 38 -1 22 -5 37 -18 53 -48 l22 -42 6 -1330 c7 -1470 8 -1510
75 -1812 49 -223 139 -441 254 -618 63 -96 238 -274 330 -333 240 -156 528
-253 875 -294 161 -19 3329 -19 3460 0 193 28 296 56 439 118 239 105 389 294
462 582 64 252 47 543 -46 778 -97 243 -258 386 -550 485 -182 63 -424 89
-820 89 -724 0 -857 69 -932 481 -8 47 -13 932 -18 3324 -6 2969 -8 3274 -23
3415 -46 417 -130 717 -273 973 -128 226 -280 370 -520 491 -191 96 -425 161
-673 186 -95 9 -449 12 -531 3z m415 -614 c293 -25 504 -109 654 -259 167
-167 274 -464 311 -865 6 -72 10 -1209 10 -3265 1 -3015 4 -3428 30 -3600 68
-446 251 -694 600 -813 196 -67 315 -78 930 -86 502 -7 539 -9 597 -28 125
-41 194 -99 241 -202 20 -43 26 -76 30 -152 11 -222 -81 -348 -303 -415 -57
-17 -150 -19 -1645 -22 -1824 -4 -1840 -3 -2066 73 -370 124 -581 394 -660
845 -18 101 -19 250 -19 3865 0 4044 -3 3827 51 4085 83 400 241 627 523 750
187 81 443 113 716 89z m-2113 -61 c153 -38 244 -104 297 -217 24 -51 26 -66
26 -186 0 -122 -2 -134 -29 -193 -51 -109 -145 -174 -299 -206 -62 -13 -154
-16 -489 -16 -458 0 -664 -11 -812 -41 -502 -102 -722 -380 -776 -979 -8 -86
-10 -461 -8 -1215 4 -992 6 -1096 21 -1155 35 -132 69 -192 135 -241 79 -58
112 -61 897 -69 756 -7 741 -6 857 -58 61 -26 132 -93 158 -147 31 -64 42
-152 30 -231 -26 -161 -125 -256 -317 -301 -57 -13 -175 -17 -743 -23 -727 -7
-709 -6 -832 -62 -102 -47 -150 -105 -185 -225 -16 -53 -18 -182 -23 -1513 -7
-1540 -6 -1507 -54 -1756 -110 -578 -397 -837 -964 -873 -423 -27 -757 72
-945 280 -176 194 -274 496 -307 949 -8 101 -10 1256 -8 3795 4 3645 4 3650
25 3755 53 269 154 472 317 632 182 179 431 286 716 307 63 5 819 8 1680 7
1414 -2 1571 -4 1632 -18z m134 -1423 c15 -9 29 -35 39 -69 14 -47 15 -190 13
-1242 -3 -1115 -4 -1191 -21 -1227 -20 -42 -57 -62 -97 -52 -14 4 -32 8 -40
10 -340 80 -393 85 -925 93 l-440 7 -50 25 c-39 20 -55 35 -75 75 l-25 49 -3
741 c-3 779 4 1023 37 1180 48 231 171 344 421 385 36 6 256 16 490 21 234 6
452 14 485 18 82 10 164 4 191 -14z"/>
<path d="M11040 7326 c-14 -7 -43 -19 -65 -26 -22 -7 -60 -28 -85 -46 -54 -40
-50 -36 -106 -99 l-44 -50 -25 32 c-14 17 -61 63 -106 103 l-81 71 -161 -4
c-187 -4 -203 -8 -277 -55 -61 -39 -187 -156 -201 -187 -5 -11 -13 -27 -17
-35 -14 -24 -35 -63 -51 -95 -8 -16 -20 -42 -28 -57 -7 -14 -13 -35 -13 -45 0
-10 -5 -24 -12 -31 -24 -24 -31 -126 -31 -437 1 -324 9 -452 31 -492 6 -12 12
-37 12 -55 0 -19 7 -43 15 -54 8 -10 15 -33 15 -49 0 -17 10 -55 21 -85 12
-30 24 -69 26 -87 3 -18 11 -38 19 -44 8 -6 14 -19 14 -28 0 -16 23 -88 39
-119 4 -9 15 -33 23 -52 24 -59 189 -400 214 -445 9 -16 21 -37 25 -45 40 -76
55 -102 85 -147 l35 -53 63 0 c52 0 66 4 84 23 12 13 22 28 22 35 0 6 14 25
30 42 17 17 30 36 30 42 0 6 17 30 38 53 20 23 45 55 54 71 10 16 45 67 78
114 75 105 129 184 155 226 11 18 35 54 54 81 19 26 54 77 77 113 23 36 56 80
73 98 17 18 31 37 31 43 0 8 57 101 107 174 73 107 131 196 147 225 59 109
116 227 116 241 0 9 7 22 15 29 8 7 15 18 15 25 0 7 11 38 25 69 14 31 25 67
25 80 0 13 7 29 15 36 8 7 15 23 15 37 0 13 5 34 12 46 6 12 16 42 21 67 13
59 13 303 0 360 -12 54 -39 116 -53 125 -5 3 -10 14 -10 24 0 19 -110 129
-170 171 -45 32 -95 50 -141 50 -20 0 -42 7 -49 15 -16 19 -115 20 -150 1z"/>
</g>
</svg>
