<?xml version="1.0" standalone="no"?>
<!DOCTYPE svg PUBLIC "-//W3C//DTD SVG 20010904//EN"
 "http://www.w3.org/TR/2001/REC-SVG-20010904/DTD/svg10.dtd">
<svg version="1.0" xmlns="http://www.w3.org/2000/svg"
 width="260.000000pt" height="260.000000pt" viewBox="0 0 260.000000 260.000000"
 preserveAspectRatio="xMidYMid meet">
<metadata>
Created by potrace 1.11, written by Peter Selinger 2001-2013
</metadata>
<g transform="translate(0.000000,260.000000) scale(0.100000,-0.100000)"
fill="#000000" stroke="none">
<path d="M0 2370 l0 -230 45 0 45 0 0 45 0 45 90 0 90 0 0 50 0 50 50 0 50 0
0 90 0 90 45 0 45 0 0 -90 0 -90 45 0 45 0 0 -50 0 -50 95 0 95 0 0 -45 0 -45
185 0 185 0 0 -45 0 -45 -325 0 -325 0 0 -50 0 -50 230 0 230 0 0 -45 0 -45
-45 0 -45 0 0 -90 0 -90 -45 0 -45 0 0 -95 0 -95 -45 0 -45 0 0 -95 0 -95 -50
0 -50 0 0 -185 0 -185 -45 0 -45 0 0 -45 0 -45 -95 0 -95 0 0 45 0 45 -45 0
-45 0 0 95 0 95 95 0 95 0 0 45 0 45 -50 0 -50 0 0 45 0 45 50 0 50 0 0 50 0
50 -50 0 -50 0 0 -50 0 -50 -45 0 -45 0 0 50 0 50 -45 0 -45 0 0 -280 0 -280
45 0 45 0 0 -45 0 -45 140 0 140 0 0 -50 0 -50 -230 0 -230 0 0 -45 0 -45 230
0 230 0 0 -45 0 -45 -230 0 -230 0 0 -235 0 -235 370 0 370 0 0 50 0 50 -45 0
-45 0 0 90 0 90 -50 0 -50 0 0 325 0 325 50 0 50 0 0 185 0 185 45 0 45 0 0
95 0 95 45 0 45 0 0 95 0 95 45 0 45 0 0 90 0 90 50 0 50 0 0 45 0 45 45 0 45
0 0 50 0 50 45 0 45 0 0 45 0 45 50 0 50 0 0 45 0 45 90 0 90 0 0 50 0 50 140
0 140 0 0 45 0 45 280 0 280 0 0 -45 0 -45 90 0 90 0 0 -50 0 -50 50 0 50 0 0
185 0 185 -1300 0 -1300 0 0 -230z m1110 95 l0 -45 -45 0 -45 0 0 45 0 45 45
0 45 0 0 -45z m-840 -2230 l0 -45 -45 0 -45 0 0 45 0 45 45 0 45 0 0 -45z"/>
<path d="M0 2000 l0 -50 185 0 185 0 0 50 0 50 -185 0 -185 0 0 -50z"/>
<path d="M1300 1815 l0 -45 -50 0 -50 0 0 -45 0 -45 50 0 50 0 0 45 0 45 135
0 135 0 0 45 0 45 -135 0 -135 0 0 -45z"/>
<path d="M1850 1725 l0 -45 140 0 140 0 0 -50 0 -50 45 0 45 0 0 50 0 50 -45
0 -45 0 0 45 0 45 -140 0 -140 0 0 -45z"/>
<path d="M1200 1395 l0 -95 95 0 95 0 0 -90 0 -90 -45 0 -45 0 0 -45 0 -45 45
0 45 0 0 45 0 45 45 0 45 0 0 -45 0 -45 140 0 140 0 0 45 0 45 -140 0 -140 0
0 90 0 90 140 0 140 0 0 95 0 95 -45 0 -45 0 0 -45 0 -45 -95 0 -95 0 0 -50 0
-50 -45 0 -45 0 0 95 0 95 -95 0 -95 0 0 -95z"/>
<path d="M1950 1305 l0 -95 90 0 90 0 0 95 0 95 -90 0 -90 0 0 -95z"/>
<path d="M1850 980 l0 -50 50 0 50 0 0 -90 0 -90 -50 0 -50 0 0 -50 0 -50
-275 0 -275 0 0 50 0 50 -50 0 -50 0 0 90 0 90 -45 0 -45 0 0 -185 0 -185 45
0 45 0 0 -45 0 -45 50 0 50 0 0 -45 0 -45 275 0 275 0 0 45 0 45 50 0 50 0 0
45 0 45 45 0 45 0 0 185 0 185 -45 0 -45 0 0 50 0 50 -50 0 -50 0 0 -50z"/>
</g>
</svg>
