<?xml version="1.0" standalone="no"?>
<!DOCTYPE svg PUBLIC "-//W3C//DTD SVG 20010904//EN"
 "http://www.w3.org/TR/2001/REC-SVG-20010904/DTD/svg10.dtd">
<svg version="1.0" xmlns="http://www.w3.org/2000/svg"
 width="260.000000pt" height="260.000000pt" viewBox="0 0 260.000000 260.000000"
 preserveAspectRatio="xMidYMid meet">
<metadata>
Created by potrace 1.11, written by Peter Selinger 2001-2013
</metadata>
<g transform="translate(0.000000,260.000000) scale(0.100000,-0.100000)"
fill="#000000" stroke="none">
<path d="M1490 2446 c-25 -7 -67 -22 -94 -34 -63 -28 -86 -28 -165 5 -65 26
-69 27 -351 31 -461 7 -554 -10 -650 -115 -38 -42 -55 -71 -72 -126 l-23 -72
0 -825 c0 -883 0 -892 50 -990 30 -58 78 -103 140 -132 72 -33 228 -33 300 0
92 43 150 118 175 232 7 31 14 172 17 325 6 286 10 312 56 337 12 7 74 18 137
24 63 7 131 16 152 19 32 7 38 4 55 -21 16 -25 19 -59 23 -359 6 -315 7 -333
29 -390 17 -43 40 -76 80 -116 95 -93 93 -93 542 -97 372 -3 387 -2 442 18
118 44 167 164 112 271 -35 67 -127 109 -244 109 -135 1 -190 25 -226 96 -19
38 -20 64 -25 789 -6 830 -4 799 -73 901 -72 108 -242 160 -387 120z m-328
-117 c82 -22 82 -116 0 -138 -20 -6 -83 -11 -140 -11 -57 0 -123 -5 -146 -11
-55 -14 -110 -59 -139 -112 -21 -41 -22 -51 -22 -344 l0 -303 28 -27 c27 -28
29 -28 190 -33 185 -6 217 -16 217 -70 0 -53 -32 -64 -210 -70 -99 -3 -163
-10 -177 -18 -48 -27 -51 -46 -55 -397 -5 -352 -11 -397 -59 -459 -74 -94
-274 -94 -348 0 -12 15 -29 52 -39 83 -16 51 -17 127 -17 891 l0 835 30 60
c35 69 86 111 155 124 65 13 687 13 732 0z m549 -30 c41 -21 71 -59 91 -119 9
-25 14 -251 17 -815 l6 -780 23 -44 c54 -101 101 -122 296 -130 146 -7 149 -7
172 -35 30 -34 30 -38 0 -73 l-24 -28 -347 -3 c-231 -2 -365 1 -402 8 -66 14
-118 56 -147 120 -21 44 -21 58 -24 850 -2 495 1 830 7 869 19 118 65 179 154
202 47 12 133 1 178 -22z m-505 -241 c9 -8 20 -33 24 -54 12 -51 12 -458 0
-509 -10 -45 -36 -69 -65 -60 -11 3 -72 10 -135 16 -209 19 -210 21 -210 282
0 200 7 236 53 285 34 37 56 45 137 53 106 10 178 5 196 -13z"/>
</g>
</svg>
